<svg width="56" height="56" viewBox="0 0 56 56" fill="none" xmlns="http://www.w3.org/2000/svg">
<rect x="1" y="1" width="54" height="54" rx="7" fill="white"/>
<rect x="1" y="1" width="54" height="54" rx="7" stroke="#E0E0E0" stroke-width="2"/>
<rect x="1" y="1" width="54" height="54" rx="7" stroke="#E0E0E0" stroke-width="2"/>
<rect x="1" y="1" width="54" height="54" rx="7" stroke="#E0E0E0" stroke-width="2"/>
<rect x="1" y="1" width="54" height="54" rx="7" stroke="#E0E0E0" stroke-width="2"/>
<rect width="52" height="12" transform="translate(2 12.5)" fill="#C0392B"/>
<rect x="22.5" y="14.5" width="4" height="8" rx="1" fill="white"/>
<rect x="29.5" y="14.5" width="4" height="8" rx="1" fill="white"/>
<rect x="4" y="28.5" width="6" height="5" rx="1" fill="#DDDDDD"/>
<rect x="11" y="28.5" width="6" height="5" rx="1" fill="#DDDDDD"/>
<rect x="18" y="28.5" width="6" height="5" rx="1" fill="#DDDDDD"/>
<rect x="25" y="28.5" width="6" height="5" rx="1" fill="#DDDDDD"/>
<rect x="32" y="28.5" width="6" height="5" rx="1" fill="#DDDDDD"/>
<rect x="39" y="28.5" width="6" height="5" rx="1" fill="#DDDDDD"/>
<rect x="46" y="28.5" width="6" height="5" rx="1" fill="#DDDDDD"/>
<rect x="4" y="34.5" width="6" height="5" rx="1" fill="#DDDDDD"/>
<rect x="11" y="34.5" width="6" height="5" rx="1" fill="#DDDDDD"/>
<rect x="18" y="34.5" width="6" height="5" rx="1" fill="#C0392B"/>
<rect x="25" y="34.5" width="6" height="5" rx="1" fill="#DDDDDD"/>
<rect x="32" y="34.5" width="6" height="5" rx="1" fill="#DDDDDD"/>
<rect x="39" y="34.5" width="6" height="5" rx="1" fill="#DDDDDD"/>
<rect x="46" y="34.5" width="6" height="5" rx="1" fill="#DDDDDD"/>
</svg>
